<svg width="2500" height="2500" version="1.1" xmlns="http://www.w3.org/2000/svg" ><desc>Binarized and Traced by BDFM https://bitmap.designfamilymarket.com/</desc><path fill="rgb(0,0,0)" d="M 0 0 L 30 0 L 30 2500 L 0 2500 Z M 122 0 L 137 0 L 137 15 L 168 15 L 168 0 L 198 0 L 198 30 L 168 30 L 168 46 L 152 46 L 152 61 L 137 61 L 137 91 L 168 91 L 168 107 L 152 107 L 152 122 L 137 122 L 137 152 L 152 152 L 152 168 L 122 168 L 122 198 L 152 198 L 152 213 L 122 213 L 122 229 L 107 229 L 107 244 L 152 244 L 152 259 L 137 259 L 137 274 L 122 274 L 122 290 L 137 290 L 137 381 L 107 381 L 107 427 L 122 427 L 122 442 L 91 442 L 91 457 L 61 457 L 61 290 L 46 290 L 46 274 L 61 274 L 61 30 L 91 30 L 91 15 L 122 15 Z M 549 0 L 564 0 L 564 15 L 549 15 Z M 564 30 L 579 30 L 579 46 L 564 46 Z M 274 61 L 290 61 L 290 76 L 274 76 Z M 1890 61 L 2500 61 L 2500 2332 L 2470 2332 L 2470 2317 L 2439 2317 L 2439 2332 L 2424 2332 L 2424 2348 L 2378 2348 L 2378 2378 L 2409 2378 L 2409 2393 L 2424 2393 L 2424 2378 L 2439 2378 L 2439 2393 L 2470 2393 L 2470 2378 L 2485 2378 L 2485 2393 L 2500 2393 L 2500 2500 L 1738 2500 L 1738 2485 L 1768 2485 L 1768 2470 L 1753 2470 L 1753 2454 L 1738 2454 L 1738 2439 L 1723 2439 L 1723 2424 L 1753 2424 L 1753 2439 L 1784 2439 L 1784 2409 L 1723 2409 L 1723 2393 L 1707 2393 L 1707 2378 L 1738 2378 L 1738 2393 L 1784 2393 L 1784 2302 L 1799 2302 L 1799 2287 L 1784 2287 L 1784 2271 L 1738 2271 L 1738 2287 L 1723 2287 L 1723 2348 L 1692 2348 L 1692 2332 L 1677 2332 L 1677 2287 L 1662 2287 L 1662 2271 L 1677 2271 L 1677 2256 L 1707 2256 L 1707 2241 L 1738 2241 L 1738 2226 L 1723 2226 L 1723 2027 L 1738 2027 L 1738 1997 L 1753 1997 L 1753 1966 L 1768 1966 L 1768 1951 L 1784 1951 L 1784 1921 L 1799 1921 L 1799 1890 L 1814 1890 L 1814 1860 L 1829 1860 L 1829 1875 L 1845 1875 L 1845 1890 L 1890 1890 L 1890 1905 L 1905 1905 L 1905 1921 L 1936 1921 L 1936 1936 L 1860 1936 L 1860 2012 L 1875 2012 L 1875 2027 L 1890 2027 L 1890 2104 L 1875 2104 L 1875 2348 L 1860 2348 L 1860 2363 L 1845 2363 L 1845 2378 L 1829 2378 L 1829 2409 L 1814 2409 L 1814 2424 L 1829 2424 L 1829 2439 L 1845 2439 L 1845 2454 L 1860 2454 L 1860 2439 L 1875 2439 L 1875 2393 L 1936 2393 L 1936 2363 L 1951 2363 L 1951 2302 L 1966 2302 L 1966 2287 L 1997 2287 L 1997 2165 L 1982 2165 L 1982 2149 L 1997 2149 L 1997 2165 L 2012 2165 L 2012 2180 L 2027 2180 L 2027 2134 L 2012 2134 L 2012 2104 L 1982 2104 L 1982 2073 L 1997 2073 L 1997 2088 L 2027 2088 L 2027 2073 L 2012 2073 L 2012 2058 L 1997 2058 L 1997 2043 L 1982 2043 L 1982 2012 L 1966 2012 L 1966 1997 L 1951 1997 L 1951 1966 L 1966 1966 L 1966 1982 L 1982 1982 L 1982 2012 L 1997 2012 L 1997 2027 L 2058 2027 L 2058 2012 L 2088 2012 L 2088 1966 L 2073 1966 L 2073 1936 L 2058 1936 L 2058 1875 L 2043 1875 L 2043 1799 L 2027 1799 L 2027 1784 L 2012 1784 L 2012 1738 L 1997 1738 L 1997 1677 L 1982 1677 L 1982 1646 L 1951 1646 L 1951 1601 L 1966 1601 L 1966 1570 L 1982 1570 L 1982 1524 L 1997 1524 L 1997 1494 L 2012 1494 L 2012 1433 L 2027 1433 L 2027 1372 L 2012 1372 L 2012 1357 L 2027 1357 L 2027 1326 L 2043 1326 L 2043 1296 L 2058 1296 L 2058 1235 L 2043 1235 L 2043 1220 L 2027 1220 L 2027 1189 L 2012 1189 L 2012 1174 L 1997 1174 L 1997 1159 L 1982 1159 L 1982 1128 L 1966 1128 L 1966 1098 L 1951 1098 L 1951 1067 L 1936 1067 L 1936 1052 L 1951 1052 L 1951 991 L 1966 991 L 1966 976 L 1982 976 L 1982 945 L 1997 945 L 1997 777 L 1982 777 L 1982 747 L 1921 747 L 1921 716 L 1875 716 L 1875 732 L 1860 732 L 1860 747 L 1845 747 L 1845 762 L 1829 762 L 1829 777 L 1799 777 L 1799 747 L 1814 747 L 1814 732 L 1799 732 L 1799 686 L 1784 686 L 1784 701 L 1768 701 L 1768 716 L 1753 716 L 1753 732 L 1738 732 L 1738 747 L 1707 747 L 1707 762 L 1631 762 L 1631 777 L 1616 777 L 1616 793 L 1601 793 L 1601 823 L 1585 823 L 1585 838 L 1570 838 L 1570 854 L 1463 854 L 1463 838 L 1448 838 L 1448 854 L 1433 854 L 1433 838 L 1402 838 L 1402 854 L 1372 854 L 1372 899 L 1357 899 L 1357 945 L 1341 945 L 1341 1021 L 1326 1021 L 1326 1067 L 1341 1067 L 1341 1113 L 1357 1113 L 1357 1174 L 1372 1174 L 1372 1235 L 1387 1235 L 1387 1250 L 1402 1250 L 1402 1265 L 1418 1265 L 1418 1296 L 1402 1296 L 1402 1311 L 1372 1311 L 1372 1326 L 1357 1326 L 1357 1372 L 1341 1372 L 1341 1387 L 1326 1387 L 1326 1402 L 1311 1402 L 1311 1433 L 1296 1433 L 1296 1448 L 1280 1448 L 1280 1479 L 1265 1479 L 1265 1540 L 1250 1540 L 1250 1570 L 1265 1570 L 1265 1601 L 1250 1601 L 1250 1616 L 1265 1616 L 1265 1631 L 1280 1631 L 1280 1662 L 1296 1662 L 1296 1677 L 1326 1677 L 1326 1662 L 1311 1662 L 1311 1616 L 1326 1616 L 1326 1585 L 1372 1585 L 1372 1555 L 1357 1555 L 1357 1509 L 1372 1509 L 1372 1448 L 1387 1448 L 1387 1433 L 1402 1433 L 1402 1448 L 1418 1448 L 1418 1479 L 1433 1479 L 1433 1494 L 1448 1494 L 1448 1509 L 1479 1509 L 1479 1540 L 1433 1540 L 1433 1555 L 1418 1555 L 1418 1570 L 1402 1570 L 1402 1585 L 1387 1585 L 1387 1601 L 1372 1601 L 1372 1616 L 1357 1616 L 1357 1662 L 1341 1662 L 1341 1753 L 1357 1753 L 1357 1784 L 1372 1784 L 1372 1814 L 1387 1814 L 1387 1875 L 1402 1875 L 1402 1966 L 1418 1966 L 1418 2027 L 1433 2027 L 1433 2134 L 1448 2134 L 1448 2210 L 1433 2210 L 1433 2287 L 1448 2287 L 1448 2317 L 1463 2317 L 1463 2439 L 1448 2439 L 1448 2500 L 1067 2500 L 1067 2470 L 1021 2470 L 1021 2485 L 1037 2485 L 1037 2500 L 1006 2500 L 1006 2470 L 1021 2470 L 1021 2454 L 960 2454 L 960 2424 L 930 2424 L 930 2470 L 915 2470 L 915 2454 L 884 2454 L 884 2439 L 869 2439 L 869 2409 L 823 2409 L 823 2393 L 762 2393 L 762 2378 L 777 2378 L 777 2363 L 762 2363 L 762 2348 L 777 2348 L 777 2317 L 732 2317 L 732 2332 L 640 2332 L 640 2317 L 671 2317 L 671 2302 L 762 2302 L 762 2287 L 777 2287 L 777 2271 L 762 2271 L 762 2256 L 701 2256 L 701 2241 L 640 2241 L 640 2134 L 625 2134 L 625 2119 L 640 2119 L 640 2104 L 686 2104 L 686 2119 L 716 2119 L 716 2134 L 701 2134 L 701 2149 L 686 2149 L 686 2180 L 671 2180 L 671 2195 L 701 2195 L 701 2210 L 793 2210 L 793 2226 L 823 2226 L 823 2241 L 838 2241 L 838 2256 L 869 2256 L 869 2271 L 884 2271 L 884 2287 L 899 2287 L 899 2302 L 930 2302 L 930 2317 L 945 2317 L 945 2332 L 960 2332 L 960 2363 L 976 2363 L 976 2378 L 991 2378 L 991 2393 L 1006 2393 L 1006 2409 L 1021 2409 L 1021 2424 L 1037 2424 L 1037 2393 L 1021 2393 L 1021 2363 L 1006 2363 L 1006 2348 L 991 2348 L 991 2332 L 976 2332 L 976 2287 L 960 2287 L 960 2271 L 945 2271 L 945 2256 L 930 2256 L 930 2241 L 915 2241 L 915 2226 L 899 2226 L 899 2210 L 884 2210 L 884 2195 L 869 2195 L 869 2180 L 854 2180 L 854 2165 L 793 2165 L 793 2180 L 808 2180 L 808 2195 L 762 2195 L 762 2180 L 732 2180 L 732 2165 L 716 2165 L 716 2149 L 747 2149 L 747 2165 L 793 2165 L 793 2149 L 762 2149 L 762 2134 L 747 2134 L 747 2119 L 762 2119 L 762 2104 L 716 2104 L 716 2088 L 640 2088 L 640 2073 L 625 2073 L 625 2058 L 701 2058 L 701 2073 L 747 2073 L 747 2088 L 777 2088 L 777 2073 L 762 2073 L 762 2058 L 716 2058 L 716 2043 L 671 2043 L 671 2027 L 655 2027 L 655 2012 L 625 2012 L 625 1997 L 640 1997 L 640 1982 L 655 1982 L 655 1997 L 701 1997 L 701 2012 L 762 2012 L 762 2027 L 838 2027 L 838 2043 L 869 2043 L 869 1997 L 793 1997 L 793 1982 L 716 1982 L 716 1966 L 686 1966 L 686 1951 L 640 1951 L 640 1936 L 625 1936 L 625 1174 L 610 1174 L 610 1159 L 625 1159 L 625 1128 L 610 1128 L 610 1113 L 625 1113 L 625 1067 L 610 1067 L 610 1037 L 625 1037 L 625 1021 L 610 1021 L 610 76 L 1890 76 Z M 1479 137 L 1479 152 L 1494 152 L 1494 137 Z M 1799 671 L 1799 686 L 1814 686 L 1814 671 Z M 1692 686 L 1692 701 L 1707 701 L 1707 686 Z M 1341 884 L 1341 899 L 1357 899 L 1357 884 Z M 915 945 L 915 960 L 899 960 L 899 976 L 884 976 L 884 991 L 869 991 L 869 1006 L 854 1006 L 854 1067 L 838 1067 L 838 1082 L 854 1082 L 854 1174 L 869 1174 L 869 1220 L 884 1220 L 884 1265 L 899 1265 L 899 1296 L 915 1296 L 915 1311 L 930 1311 L 930 1326 L 945 1326 L 945 1357 L 960 1357 L 960 1372 L 976 1372 L 976 1387 L 991 1387 L 991 1402 L 1006 1402 L 1006 1418 L 1067 1418 L 1067 1402 L 1082 1402 L 1082 1387 L 1067 1387 L 1067 1296 L 1082 1296 L 1082 1280 L 1052 1280 L 1052 1265 L 1021 1265 L 1021 1250 L 991 1250 L 991 1174 L 976 1174 L 976 1113 L 991 1113 L 991 1098 L 1006 1098 L 1006 1067 L 976 1067 L 976 1021 L 991 1021 L 991 991 L 1021 991 L 1021 960 L 1006 960 L 1006 945 Z M 1021 991 L 1021 1006 L 1037 1006 L 1037 991 Z M 1037 1006 L 1037 1067 L 1052 1067 L 1052 1098 L 1067 1098 L 1067 1082 L 1082 1082 L 1082 1037 L 1067 1037 L 1067 1021 L 1052 1021 L 1052 1006 Z M 1082 1174 L 1082 1220 L 1098 1220 L 1098 1235 L 1113 1235 L 1113 1189 L 1098 1189 L 1098 1174 Z M 1174 1265 L 1174 1280 L 1159 1280 L 1159 1296 L 1143 1296 L 1143 1326 L 1159 1326 L 1159 1402 L 1174 1402 L 1174 1433 L 1159 1433 L 1159 1448 L 1174 1448 L 1174 1540 L 1189 1540 L 1189 1570 L 1204 1570 L 1204 1585 L 1220 1585 L 1220 1540 L 1204 1540 L 1204 1433 L 1220 1433 L 1220 1296 L 1204 1296 L 1204 1280 L 1189 1280 L 1189 1265 Z M 1982 1631 L 1982 1646 L 1997 1646 L 1997 1662 L 2012 1662 L 2012 1723 L 2027 1723 L 2027 1738 L 2058 1738 L 2058 1753 L 2073 1753 L 2073 1799 L 2088 1799 L 2088 1814 L 2104 1814 L 2104 1875 L 2119 1875 L 2119 1966 L 2134 1966 L 2134 1982 L 2180 1982 L 2180 1845 L 2165 1845 L 2165 1799 L 2149 1799 L 2149 1768 L 2134 1768 L 2134 1753 L 2149 1753 L 2149 1738 L 2165 1738 L 2165 1723 L 2195 1723 L 2195 1707 L 2210 1707 L 2210 1723 L 2241 1723 L 2241 1692 L 2226 1692 L 2226 1677 L 2165 1677 L 2165 1662 L 2104 1662 L 2104 1707 L 2119 1707 L 2119 1738 L 2088 1738 L 2088 1723 L 2073 1723 L 2073 1692 L 2058 1692 L 2058 1662 L 2043 1662 L 2043 1646 L 2027 1646 L 2027 1631 Z M 930 1707 L 930 1723 L 945 1723 L 945 1707 Z M 899 1738 L 899 1784 L 915 1784 L 915 1814 L 930 1814 L 930 1845 L 945 1845 L 945 1860 L 960 1860 L 960 1890 L 976 1890 L 976 1921 L 991 1921 L 991 1936 L 1006 1936 L 1006 1951 L 1021 1951 L 1021 1982 L 1037 1982 L 1037 2012 L 1052 2012 L 1052 2027 L 1067 2027 L 1067 2043 L 1082 2043 L 1082 2073 L 1098 2073 L 1098 2088 L 1113 2088 L 1113 2104 L 1128 2104 L 1128 2073 L 1113 2073 L 1113 2043 L 1098 2043 L 1098 2027 L 1082 2027 L 1082 2012 L 1067 2012 L 1067 1982 L 1052 1982 L 1052 1951 L 1037 1951 L 1037 1936 L 1021 1936 L 1021 1905 L 1006 1905 L 1006 1875 L 991 1875 L 991 1845 L 976 1845 L 976 1829 L 960 1829 L 960 1814 L 945 1814 L 945 1784 L 930 1784 L 930 1768 L 915 1768 L 915 1738 Z M 945 1738 L 945 1768 L 960 1768 L 960 1784 L 976 1784 L 976 1753 L 960 1753 L 960 1738 Z M 2180 1753 L 2180 1784 L 2195 1784 L 2195 1829 L 2210 1829 L 2210 1890 L 2226 1890 L 2226 1905 L 2241 1905 L 2241 1921 L 2256 1921 L 2256 1936 L 2287 1936 L 2287 1905 L 2256 1905 L 2256 1875 L 2271 1875 L 2271 1890 L 2287 1890 L 2287 1860 L 2271 1860 L 2271 1799 L 2241 1799 L 2241 1814 L 2256 1814 L 2256 1829 L 2241 1829 L 2241 1814 L 2210 1814 L 2210 1799 L 2241 1799 L 2241 1784 L 2210 1784 L 2210 1768 L 2195 1768 L 2195 1753 Z M 976 1784 L 976 1814 L 991 1814 L 991 1784 Z M 991 1814 L 991 1845 L 1006 1845 L 1006 1860 L 1021 1860 L 1021 1829 L 1006 1829 L 1006 1814 Z M 1037 1814 L 1037 1829 L 1052 1829 L 1052 1814 Z M 1052 1829 L 1052 1860 L 1067 1860 L 1067 1829 Z M 1021 1860 L 1021 1890 L 1037 1890 L 1037 1860 Z M 1067 1860 L 1067 1875 L 1082 1875 L 1082 1860 Z M 716 1875 L 716 1890 L 732 1890 L 732 1875 Z M 1082 1875 L 1082 1905 L 1098 1905 L 1098 1921 L 1113 1921 L 1113 1951 L 1128 1951 L 1128 1966 L 1143 1966 L 1143 1997 L 1159 1997 L 1159 2012 L 1174 2012 L 1174 2027 L 1189 2027 L 1189 1997 L 1174 1997 L 1174 1982 L 1159 1982 L 1159 1951 L 1143 1951 L 1143 1936 L 1128 1936 L 1128 1905 L 1113 1905 L 1113 1890 L 1098 1890 L 1098 1875 Z M 1037 1890 L 1037 1905 L 1052 1905 L 1052 1890 Z M 762 1905 L 762 1921 L 777 1921 L 777 1905 Z M 1052 1905 L 1052 1921 L 1067 1921 L 1067 1905 Z M 1067 1936 L 1067 1951 L 1082 1951 L 1082 1936 Z M 1082 1951 L 1082 1966 L 1098 1966 L 1098 1951 Z M 930 1966 L 930 1997 L 945 1997 L 945 1966 Z M 1098 1982 L 1098 1997 L 1113 1997 L 1113 1982 Z M 945 1997 L 945 2027 L 960 2027 L 960 2058 L 976 2058 L 976 2073 L 991 2073 L 991 2104 L 1006 2104 L 1006 2134 L 1021 2134 L 1021 2165 L 1037 2165 L 1037 2134 L 1052 2134 L 1052 2104 L 1037 2104 L 1037 2088 L 1006 2088 L 1006 2058 L 991 2058 L 991 2027 L 976 2027 L 976 2012 L 960 2012 L 960 1997 Z M 1113 1997 L 1113 2012 L 1128 2012 L 1128 1997 Z M 1189 2027 L 1189 2058 L 1204 2058 L 1204 2073 L 1220 2073 L 1220 2043 L 1204 2043 L 1204 2027 Z M 1143 2043 L 1143 2058 L 1159 2058 L 1159 2043 Z M 1159 2058 L 1159 2073 L 1174 2073 L 1174 2058 Z M 793 2073 L 793 2088 L 838 2088 L 838 2104 L 854 2104 L 854 2119 L 869 2119 L 869 2134 L 884 2134 L 884 2149 L 915 2149 L 915 2180 L 945 2180 L 945 2195 L 960 2195 L 960 2210 L 991 2210 L 991 2195 L 976 2195 L 976 2180 L 960 2180 L 960 2165 L 945 2165 L 945 2149 L 930 2149 L 930 2134 L 915 2134 L 915 2119 L 884 2119 L 884 2104 L 869 2104 L 869 2088 L 854 2088 L 854 2073 Z M 1220 2073 L 1220 2088 L 1235 2088 L 1235 2073 Z M 1280 2073 L 1280 2088 L 1296 2088 L 1296 2073 Z M 1159 2088 L 1159 2104 L 1189 2104 L 1189 2088 Z M 1235 2088 L 1235 2104 L 1250 2104 L 1250 2088 Z M 762 2119 L 762 2134 L 808 2134 L 808 2149 L 854 2149 L 854 2134 L 838 2134 L 838 2119 Z M 1250 2119 L 1250 2134 L 1265 2134 L 1265 2119 Z M 2363 2119 L 2363 2134 L 2378 2134 L 2378 2119 Z M 1067 2134 L 1067 2165 L 1052 2165 L 1052 2180 L 1037 2180 L 1037 2210 L 1052 2210 L 1052 2226 L 1113 2226 L 1113 2210 L 1082 2210 L 1082 2180 L 1143 2180 L 1143 2149 L 1113 2149 L 1113 2134 Z M 2348 2134 L 2348 2149 L 2363 2149 L 2363 2134 Z M 2378 2134 L 2378 2149 L 2409 2149 L 2409 2134 Z M 2195 2226 L 2195 2241 L 2210 2241 L 2210 2226 Z M 1052 2241 L 1052 2256 L 1067 2256 L 1067 2271 L 1082 2271 L 1082 2302 L 1098 2302 L 1098 2271 L 1113 2271 L 1113 2241 Z M 2210 2241 L 2210 2271 L 2256 2271 L 2256 2256 L 2226 2256 L 2226 2241 Z M 1143 2332 L 1143 2348 L 1159 2348 L 1159 2332 Z M 1113 2348 L 1113 2363 L 1128 2363 L 1128 2439 L 1143 2439 L 1143 2454 L 1159 2454 L 1159 2439 L 1174 2439 L 1174 2409 L 1159 2409 L 1159 2393 L 1143 2393 L 1143 2348 Z M 1159 2363 L 1159 2378 L 1174 2378 L 1174 2363 Z M 1814 2454 L 1814 2470 L 1829 2470 L 1829 2454 Z M 213 91 L 229 91 L 229 107 L 213 107 Z M 274 107 L 290 107 L 290 122 L 274 122 Z M 274 366 L 290 366 L 290 381 L 274 381 Z M 183 534 L 198 534 L 198 549 L 183 549 Z M 76 595 L 91 595 L 91 625 L 76 625 Z M 137 610 L 152 610 L 152 625 L 137 625 Z M 107 686 L 122 686 L 122 701 L 107 701 Z M 168 701 L 183 701 L 183 716 L 168 716 Z M 91 747 L 122 747 L 122 762 L 91 762 Z M 137 762 L 168 762 L 168 777 L 152 777 L 152 793 L 137 793 Z M 183 793 L 198 793 L 198 808 L 183 808 Z M 91 854 L 107 854 L 107 869 L 91 869 Z M 168 854 L 183 854 L 183 869 L 168 869 Z M 1616 884 L 1814 884 L 1814 899 L 1845 899 L 1845 915 L 1860 915 L 1860 930 L 1875 930 L 1875 960 L 1845 960 L 1845 945 L 1784 945 L 1784 930 L 1738 930 L 1738 915 L 1707 915 L 1707 899 L 1646 899 L 1646 915 L 1601 915 L 1601 899 L 1616 899 Z M 1662 960 L 1799 960 L 1799 991 L 1814 991 L 1814 1037 L 1799 1037 L 1799 1082 L 1784 1082 L 1784 1098 L 1738 1098 L 1738 1082 L 1723 1082 L 1723 1067 L 1692 1067 L 1692 1052 L 1646 1052 L 1646 1037 L 1601 1037 L 1601 1021 L 1585 1021 L 1585 1006 L 1601 1006 L 1601 976 L 1662 976 Z M 1738 1006 L 1738 1052 L 1753 1052 L 1753 1006 Z M 884 1021 L 899 1021 L 899 1067 L 915 1067 L 915 1189 L 899 1189 L 899 1204 L 884 1204 L 884 1159 L 869 1159 L 869 1143 L 884 1143 Z M 107 1052 L 122 1052 L 122 1067 L 107 1067 Z M 152 1128 L 168 1128 L 168 1143 L 152 1143 Z M 1845 1235 L 1860 1235 L 1860 1265 L 1845 1265 Z M 1921 1311 L 1966 1311 L 1966 1326 L 1921 1326 Z M 1860 1463 L 1921 1463 L 1921 1479 L 1951 1479 L 1951 1463 L 1982 1463 L 1982 1479 L 1966 1479 L 1966 1524 L 1951 1524 L 1951 1570 L 1936 1570 L 1936 1555 L 1921 1555 L 1921 1540 L 1875 1540 L 1875 1524 L 1814 1524 L 1814 1509 L 1723 1509 L 1723 1494 L 1799 1494 L 1799 1479 L 1860 1479 Z M 1845 1494 L 1845 1509 L 1860 1509 L 1860 1494 Z M 122 1616 L 152 1616 L 152 1646 L 137 1646 L 137 1662 L 168 1662 L 168 1646 L 213 1646 L 213 1662 L 259 1662 L 259 1677 L 274 1677 L 274 1692 L 305 1692 L 305 1707 L 320 1707 L 320 1723 L 335 1723 L 335 1753 L 381 1753 L 381 1784 L 412 1784 L 412 1814 L 442 1814 L 442 1829 L 427 1829 L 427 1845 L 457 1845 L 457 1890 L 488 1890 L 488 1905 L 473 1905 L 473 1951 L 488 1951 L 488 1966 L 473 1966 L 473 1982 L 503 1982 L 503 2012 L 488 2012 L 488 2043 L 503 2043 L 503 2058 L 488 2058 L 488 2073 L 473 2073 L 473 2104 L 503 2104 L 503 2119 L 488 2119 L 488 2134 L 473 2134 L 473 2149 L 488 2149 L 488 2180 L 473 2180 L 473 2195 L 488 2195 L 488 2210 L 503 2210 L 503 2226 L 488 2226 L 488 2241 L 473 2241 L 473 2271 L 488 2271 L 488 2256 L 503 2256 L 503 2271 L 488 2271 L 488 2302 L 473 2302 L 473 2317 L 503 2317 L 503 2332 L 488 2332 L 488 2363 L 473 2363 L 473 2378 L 503 2378 L 503 2393 L 488 2393 L 488 2409 L 473 2409 L 473 2424 L 503 2424 L 503 2439 L 488 2439 L 488 2500 L 61 2500 L 61 1662 L 76 1662 L 76 1646 L 122 1646 Z M 198 1662 L 198 1677 L 213 1677 L 213 1662 Z M 1463 1616 L 1509 1616 L 1509 1631 L 1524 1631 L 1524 1646 L 1540 1646 L 1540 1662 L 1555 1662 L 1555 1677 L 1570 1677 L 1570 1692 L 1585 1692 L 1585 1707 L 1601 1707 L 1601 1738 L 1616 1738 L 1616 1753 L 1631 1753 L 1631 1768 L 1646 1768 L 1646 1784 L 1692 1784 L 1692 1768 L 1723 1768 L 1723 1753 L 1738 1753 L 1738 1738 L 1753 1738 L 1753 1723 L 1768 1723 L 1768 1707 L 1784 1707 L 1784 1692 L 1799 1692 L 1799 1677 L 1829 1677 L 1829 1662 L 1845 1662 L 1845 1677 L 1829 1677 L 1829 1692 L 1814 1692 L 1814 1707 L 1799 1707 L 1799 1768 L 1784 1768 L 1784 1738 L 1753 1738 L 1753 1768 L 1738 1768 L 1738 1784 L 1723 1784 L 1723 1829 L 1677 1829 L 1677 1814 L 1662 1814 L 1662 1799 L 1646 1799 L 1646 1784 L 1631 1784 L 1631 1768 L 1585 1768 L 1585 1753 L 1570 1753 L 1570 1723 L 1555 1723 L 1555 1692 L 1540 1692 L 1540 1677 L 1524 1677 L 1524 1662 L 1494 1662 L 1494 1646 L 1479 1646 L 1479 1631 L 1463 1631 Z M 1951 1662 L 1966 1662 L 1966 1692 L 1951 1692 Z M 1936 1753 L 1951 1753 L 1951 1768 L 1966 1768 L 1966 1784 L 1936 1784 Z M 1845 1829 L 1875 1829 L 1875 1845 L 1921 1845 L 1921 1860 L 1936 1860 L 1936 1875 L 1951 1875 L 1951 1890 L 1905 1890 L 1905 1875 L 1875 1875 L 1875 1860 L 1845 1860 Z M 1966 1875 L 1982 1875 L 1982 1890 L 1966 1890 Z M 686 2393 L 701 2393 L 701 2409 L 686 2409 Z M 640 2409 L 655 2409 L 655 2424 L 640 2424 Z M 701 2424 L 793 2424 L 793 2454 L 777 2454 L 777 2470 L 762 2470 L 762 2454 L 732 2454 L 732 2439 L 716 2439 L 716 2454 L 701 2454 Z M 640 2439 L 655 2439 L 655 2454 L 671 2454 L 671 2439 L 686 2439 L 686 2485 L 701 2485 L 701 2500 L 671 2500 L 671 2485 L 640 2485 Z M 854 2470 L 869 2470 L 869 2485 L 854 2485 Z M 884 2485 L 899 2485 L 899 2500 L 884 2500 Z M 915 2485 L 930 2485 L 930 2500 L 915 2500 Z" /></svg>